<svg xmlns="http://www.w3.org/2000/svg" width="990.72" height="4.03in" viewBox="0 0 743.17 290.23"><path fill="#fff" d="M221.45 42.11v-.14c0-3.4.64-6.64 1.83-9.6s2.93-5.62 5.13-7.86 4.85-4.06 7.88-5.31 6.42-1.95 10.09-1.95c2.25 0 4.28.19 6.12.54s3.5.86 5.02 1.51 2.89 1.43 4.16 2.33 2.44 1.9 3.55 3l-1.67 1.93-1.67 1.93-1.67 1.93-1.67 1.93c-.92-.84-1.85-1.59-2.79-2.25s-1.91-1.23-2.91-1.7-2.03-.83-3.11-1.07-2.21-.37-3.41-.37c-2.01 0-3.89.42-5.57 1.17s-3.16 1.85-4.39 3.2-2.21 2.95-2.88 4.73-1.03 3.73-1.03 5.78v.14c0 2.05.35 4.01 1.01 5.8s1.62 3.41 2.84 4.78 2.7 2.48 4.38 3.24 3.57 1.2 5.62 1.2c1.37 0 2.6-.14 3.74-.39s2.19-.64 3.18-1.12 1.94-1.08 2.86-1.76 1.84-1.46 2.78-2.32l1.67 1.69 1.67 1.69 1.67 1.69 1.67 1.69c-1.23 1.31-2.49 2.51-3.84 3.55s-2.78 1.95-4.35 2.69-3.27 1.31-5.15 1.7-3.96.59-6.26.59c-3.52 0-6.81-.68-9.77-1.91s-5.58-3.02-7.77-5.23-3.93-4.86-5.13-7.81-1.85-6.2-1.85-9.63Zm47.18 13.25v-.14c0-2 .38-3.73 1.09-5.19s1.74-2.68 3.04-3.64 2.87-1.67 4.66-2.14 3.8-.7 5.96-.7c.92 0 1.78.04 2.59.11s1.57.18 2.29.31 1.42.29 2.09.48 1.33.39 1.97.61v-.62c0-1.08-.17-2.03-.5-2.86s-.83-1.53-1.48-2.1-1.48-1-2.46-1.29-2.12-.44-3.42-.44c-.99 0-1.91.05-2.78.14s-1.7.22-2.5.39-1.59.38-2.39.62-1.6.52-2.43.83l-.65-1.98-.65-1.98-.65-1.98-.65-1.98c1.01-.44 2.01-.85 3.05-1.21s2.1-.67 3.24-.93 2.34-.46 3.65-.59 2.72-.21 4.27-.21c1.42 0 2.74.09 3.96.28s2.35.45 3.37.8 1.96.78 2.8 1.29 1.58 1.09 2.23 1.73c.68.68 1.27 1.45 1.77 2.29s.91 1.75 1.23 2.73.56 2.03.72 3.14.23 2.29.23 3.51v21.24h-10.04v-3.96c-.63.7-1.32 1.34-2.08 1.91s-1.59 1.06-2.5 1.46-1.9.72-2.97.94-2.24.33-3.5.33c-1.72 0-3.37-.25-4.87-.73s-2.86-1.21-4-2.15-2.06-2.12-2.7-3.51-.99-2.99-.99-4.8Zm23.83-2.39v-1.84c-.44-.2-.92-.39-1.43-.56s-1.04-.31-1.6-.43-1.14-.21-1.74-.28-1.22-.1-1.85-.1c-1.11 0-2.11.11-2.99.33s-1.64.54-2.26.97-1.1.96-1.42 1.58-.5 1.35-.5 2.17v.14c0 .7.15 1.33.41 1.87s.66 1.01 1.16 1.39 1.1.67 1.79.87 1.46.3 2.3.3c1.21 0 2.33-.17 3.31-.47s1.85-.76 2.57-1.33 1.27-1.25 1.66-2.03.59-1.65.59-2.59Zm16.73-23.69h10.38v5.19c.6-.77 1.24-1.52 1.94-2.21s1.48-1.33 2.34-1.87 1.81-.99 2.88-1.3 2.24-.49 3.56-.49c1.96 0 3.72.32 5.25.94s2.84 1.53 3.9 2.7 1.88 2.61 2.43 4.28.84 3.57.84 5.67v23.69h-10.38V45.46c0-1.23-.15-2.31-.42-3.24s-.69-1.71-1.23-2.33-1.2-1.09-1.97-1.41-1.66-.47-2.65-.47-1.89.16-2.68.47-1.48.78-2.04 1.41-1 1.4-1.3 2.33-.46 2.01-.46 3.24v20.42H309.2v-36.6Zm38.3 26.08v-.14c0-2 .38-3.73 1.09-5.19s1.74-2.68 3.04-3.64 2.87-1.67 4.66-2.14 3.8-.7 5.96-.7c.92 0 1.78.04 2.59.11s1.57.18 2.29.31 1.42.29 2.09.48 1.33.39 1.97.61v-.62c0-1.08-.17-2.03-.5-2.86s-.83-1.53-1.48-2.1-1.48-1-2.46-1.29-2.12-.44-3.42-.44c-.99 0-1.91.05-2.78.14s-1.7.22-2.5.39-1.59.38-2.39.62-1.6.52-2.43.83l-.65-1.98-.65-1.98-.65-1.98-.65-1.98c1.01-.44 2.01-.85 3.05-1.21s2.1-.67 3.24-.93 2.34-.46 3.65-.59 2.72-.21 4.27-.21c1.42 0 2.74.09 3.96.28s2.35.45 3.37.8 1.96.78 2.8 1.29 1.58 1.09 2.23 1.73c.68.68 1.27 1.45 1.77 2.29s.91 1.75 1.23 2.73.56 2.03.72 3.14.23 2.29.23 3.51v21.24H371.1v-3.96c-.63.7-1.32 1.34-2.08 1.91s-1.59 1.06-2.5 1.46-1.9.72-2.97.94-2.24.33-3.5.33c-1.72 0-3.37-.25-4.87-.73s-2.86-1.21-4-2.15-2.06-2.12-2.7-3.51-.99-2.99-.99-4.8Zm23.83-2.39v-1.84c-.44-.2-.92-.39-1.43-.56s-1.04-.31-1.6-.43-1.14-.21-1.74-.28-1.22-.1-1.85-.1c-1.11 0-2.11.11-2.99.33s-1.64.54-2.26.97-1.1.96-1.42 1.58-.5 1.35-.5 2.17v.14c0 .7.15 1.33.41 1.87s.66 1.01 1.16 1.39 1.1.67 1.79.87 1.46.3 2.3.3c1.21 0 2.33-.17 3.31-.47s1.85-.76 2.57-1.33 1.27-1.25 1.66-2.03.59-1.65.59-2.59Zm15.09-5.33v-.14c0-3.06.5-5.77 1.38-8.11s2.15-4.33 3.69-5.93 3.35-2.82 5.32-3.64 4.09-1.24 6.26-1.24c1.38 0 2.63.16 3.77.44s2.16.69 3.08 1.19 1.76 1.09 2.51 1.74 1.43 1.36 2.04 2.09V16.01h10.38v49.85h-10.38V60.6c-.63.85-1.32 1.65-2.09 2.37s-1.61 1.35-2.54 1.88-1.95.95-3.08 1.24-2.35.45-3.7.45c-2.13 0-4.24-.42-6.2-1.24s-3.78-2.04-5.33-3.64-2.83-3.58-3.73-5.93-1.4-5.06-1.4-8.11Zm28.2 0v-.14c0-1.52-.25-2.91-.71-4.14s-1.11-2.31-1.92-3.19-1.76-1.58-2.82-2.05-2.22-.72-3.43-.72-2.38.25-3.44.71-2.03 1.15-2.85 2.03-1.48 1.95-1.94 3.19-.72 2.64-.72 4.17v.14c0 1.52.26 2.91.72 4.14s1.12 2.31 1.94 3.19 1.78 1.58 2.85 2.05 2.23.72 3.44.72 2.37-.25 3.43-.72 2.02-1.17 2.82-2.05 1.46-1.96 1.92-3.19.71-2.62.71-4.14Zm17.68-31.62h10.93v9.22h-10.93v-9.22Zm.27 13.25h10.38v36.6h-10.38V29.28Zm15.91 26.08v-.14c0-2 .38-3.73 1.09-5.19s1.74-2.68 3.04-3.64 2.87-1.67 4.66-2.14 3.8-.7 5.96-.7c.92 0 1.78.04 2.59.11s1.57.18 2.29.31 1.42.29 2.09.48 1.33.39 1.97.61v-.62c0-1.08-.17-2.03-.5-2.86s-.83-1.53-1.48-2.1-1.48-1-2.46-1.29-2.12-.44-3.42-.44c-.99 0-1.91.05-2.78.14s-1.7.22-2.5.39-1.59.38-2.39.62-1.6.52-2.43.83l-.65-1.98-.65-1.98-.65-1.98-.65-1.98c1.01-.44 2.01-.85 3.04-1.21s2.1-.67 3.24-.93 2.34-.46 3.65-.59 2.72-.21 4.27-.21c1.42 0 2.74.09 3.96.28s2.35.45 3.38.8 1.96.78 2.8 1.29 1.58 1.09 2.23 1.73c.68.68 1.27 1.45 1.77 2.29s.91 1.75 1.23 2.73.56 2.03.72 3.14.23 2.29.23 3.51v21.24h-10.04v-3.96c-.63.7-1.32 1.34-2.08 1.91s-1.59 1.06-2.5 1.46-1.9.72-2.97.94-2.24.33-3.51.33c-1.72 0-3.37-.25-4.87-.73s-2.86-1.21-4-2.15-2.06-2.12-2.7-3.51-.99-2.99-.99-4.8Zm23.83-2.39v-1.84c-.44-.2-.92-.39-1.43-.56s-1.04-.31-1.6-.43-1.14-.21-1.74-.28-1.22-.1-1.85-.1c-1.11 0-2.11.11-2.99.33s-1.64.54-2.26.97-1.1.96-1.42 1.58-.5 1.35-.5 2.17v.14c0 .7.15 1.33.41 1.87s.66 1.01 1.16 1.39 1.1.67 1.79.87 1.46.3 2.3.3c1.21 0 2.33-.17 3.32-.47s1.85-.76 2.57-1.33 1.27-1.25 1.66-2.03.59-1.65.59-2.59Zm16.73-23.69h10.38v5.19c.6-.77 1.24-1.52 1.94-2.21s1.48-1.33 2.34-1.87 1.81-.99 2.88-1.3 2.24-.49 3.56-.49c1.96 0 3.72.32 5.25.94s2.84 1.53 3.9 2.7 1.88 2.61 2.43 4.28.84 3.57.84 5.67v23.69h-10.38V45.45c0-1.23-.15-2.31-.42-3.24s-.69-1.71-1.23-2.33-1.2-1.09-1.97-1.41-1.66-.47-2.65-.47-1.89.16-2.68.47-1.48.78-2.04 1.41-1 1.4-1.3 2.33-.46 2.01-.46 3.24v20.42h-10.38V29.28Zm-265.46 52.2h19.53c2.85 0 5.42.42 7.67 1.21s4.18 1.94 5.76 3.39 2.79 3.22 3.62 5.22 1.26 4.26 1.26 6.7v.14c0 2.77-.54 5.2-1.51 7.29s-2.38 3.85-4.13 5.26-3.83 2.47-6.14 3.18-4.86 1.07-7.54 1.07h-7.99v14.34h-10.52v-47.8Zm18.85 24.11c1.31 0 2.49-.2 3.52-.55s1.9-.88 2.62-1.53 1.26-1.43 1.63-2.3.56-1.84.56-2.86v-.14c0-1.18-.2-2.22-.59-3.12s-.96-1.66-1.7-2.27-1.64-1.07-2.69-1.38-2.24-.47-3.55-.47h-8.13v14.61h8.33Zm21.51 5.6v-.14c0-2.63.53-5.13 1.5-7.41s2.39-4.33 4.16-6.06 3.9-3.12 6.3-4.08 5.06-1.5 7.92-1.5 5.48.52 7.87 1.48 4.49 2.33 6.25 4.04 3.16 3.74 4.13 6.01 1.49 4.76 1.49 7.39v.14c0 2.63-.53 5.13-1.5 7.41s-2.39 4.33-4.16 6.06-3.9 3.12-6.3 4.08-5.06 1.5-7.92 1.5-5.48-.52-7.87-1.48-4.49-2.33-6.25-4.04-3.16-3.74-4.13-6.01-1.49-4.76-1.49-7.39Zm29.36 0v-.14c0-1.35-.24-2.65-.7-3.86s-1.12-2.3-1.97-3.22-1.87-1.68-3.04-2.21-2.49-.82-3.92-.82-2.82.29-3.99.8-2.17 1.25-2.98 2.16-1.44 1.99-1.87 3.17-.65 2.48-.65 3.83v.14c0 1.35.24 2.65.7 3.85s1.12 2.29 1.97 3.22 1.87 1.68 3.04 2.21 2.49.82 3.92.82 2.82-.29 3.99-.8 2.17-1.25 2.98-2.16 1.44-1.99 1.87-3.17.65-2.48.65-3.83Zm14.06-.14v-.14c0-3.06.5-5.77 1.38-8.11s2.15-4.33 3.69-5.93 3.35-2.82 5.32-3.64 4.09-1.24 6.26-1.24c1.38 0 2.63.16 3.77.44s2.16.69 3.08 1.19 1.76 1.09 2.51 1.74 1.43 1.36 2.04 2.09V79.41h10.38v49.85H335.4V124c-.63.85-1.32 1.65-2.09 2.37s-1.61 1.35-2.54 1.88-1.95.95-3.08 1.24-2.35.45-3.7.45c-2.13 0-4.24-.42-6.2-1.24s-3.78-2.04-5.33-3.64-2.83-3.58-3.73-5.93-1.4-5.06-1.4-8.11Zm28.2 0v-.14c0-1.52-.25-2.91-.71-4.14s-1.11-2.31-1.92-3.19-1.76-1.58-2.82-2.05-2.22-.72-3.43-.72-2.38.25-3.44.71-2.03 1.15-2.85 2.03-1.48 1.95-1.94 3.19-.72 2.64-.72 4.17v.14c0 1.52.26 2.91.72 4.14s1.12 2.31 1.94 3.19 1.78 1.58 2.85 2.05 2.23.72 3.44.72 2.37-.25 3.43-.72 2.02-1.17 2.82-2.05 1.46-1.96 1.92-3.19.71-2.62.71-4.14Zm15.7.14v-.14c0-2.61.5-5.11 1.42-7.38s2.27-4.33 3.97-6.06 3.75-3.13 6.07-4.1 4.92-1.51 7.72-1.51c1.72 0 3.29.15 4.71.42s2.72.69 3.9 1.22 2.26 1.18 3.25 1.93 1.9 1.62 2.75 2.57l-1.59 1.71-1.59 1.71-1.59 1.71-1.59 1.71c-.58-.61-1.16-1.17-1.76-1.67s-1.22-.92-1.89-1.27-1.37-.62-2.15-.81-1.61-.28-2.53-.28c-1.3 0-2.5.29-3.58.8s-2.02 1.25-2.81 2.16-1.41 1.99-1.84 3.17-.66 2.48-.66 3.83v.14c0 1.4.23 2.73.65 3.94s1.06 2.3 1.86 3.21 1.79 1.65 2.93 2.16 2.43.79 3.84.79c.87 0 1.67-.09 2.43-.27s1.46-.44 2.13-.78 1.32-.75 1.95-1.23 1.26-1.02 1.89-1.62l1.52 1.54 1.52 1.54 1.52 1.54 1.52 1.54c-.89.97-1.81 1.88-2.81 2.69s-2.07 1.52-3.26 2.12-2.5 1.07-3.97 1.39-3.09.5-4.92.5c-2.75 0-5.31-.53-7.61-1.49s-4.34-2.34-6.03-4.05-3.05-3.75-3.97-6.01-1.43-4.75-1.43-7.36Zm36.53 7.58v-.14c0-2 .38-3.73 1.09-5.19s1.74-2.68 3.04-3.64 2.87-1.67 4.66-2.14 3.8-.7 5.96-.7c.92 0 1.78.04 2.59.11s1.57.18 2.29.31 1.42.29 2.09.48 1.33.39 1.97.61v-.62c0-1.08-.17-2.03-.5-2.86s-.83-1.53-1.48-2.1-1.48-1-2.46-1.29-2.12-.44-3.42-.44c-.99 0-1.91.05-2.78.14s-1.7.22-2.5.39-1.59.38-2.39.62-1.6.52-2.43.83l-.65-1.98-.65-1.98-.65-1.98-.65-1.98c1.01-.44 2.01-.85 3.05-1.21s2.1-.67 3.24-.93 2.34-.46 3.65-.59 2.72-.21 4.27-.21c1.42 0 2.74.09 3.96.28s2.35.45 3.37.8 1.96.78 2.8 1.29 1.58 1.09 2.23 1.73c.68.68 1.27 1.45 1.77 2.29s.91 1.75 1.23 2.73.56 2.03.72 3.14.23 2.29.23 3.51v21.24h-10.04v-3.96c-.63.7-1.32 1.34-2.08 1.91s-1.59 1.06-2.5 1.46-1.9.72-2.97.94-2.24.33-3.51.33c-1.72 0-3.37-.25-4.87-.73s-2.86-1.21-4-2.15-2.06-2.12-2.7-3.51-.99-2.99-.99-4.8Zm23.83-2.39v-1.84c-.44-.2-.92-.39-1.43-.56s-1.04-.31-1.6-.43-1.14-.21-1.74-.28-1.22-.1-1.85-.1c-1.11 0-2.11.11-2.99.33s-1.64.54-2.26.97-1.1.96-1.42 1.58-.5 1.35-.5 2.17v.14c0 .7.15 1.33.41 1.87s.66 1.01 1.16 1.39 1.1.67 1.79.87 1.46.3 2.3.3c1.21 0 2.33-.17 3.31-.47s1.85-.76 2.57-1.33 1.27-1.25 1.66-2.03.59-1.65.59-2.59Zm13.86 8.06 1.11-1.71 1.11-1.71 1.11-1.71 1.11-1.71c.99.72 1.99 1.35 2.99 1.89s2 1 2.98 1.37 1.95.64 2.88.83 1.83.28 2.69.28c.75 0 1.4-.07 1.95-.2s1-.32 1.36-.55.62-.53.8-.86.26-.71.26-1.12v-.14c0-.56-.22-1.03-.62-1.44s-.97-.75-1.66-1.06-1.52-.59-2.42-.87-1.88-.56-2.88-.86c-1.28-.38-2.6-.81-3.87-1.35s-2.47-1.21-3.52-2.04-1.93-1.85-2.56-3.09-.99-2.73-.99-4.5v-.14c0-1.86.38-3.52 1.05-4.95s1.66-2.66 2.87-3.64 2.65-1.74 4.25-2.25 3.36-.77 5.2-.77c1.16 0 2.35.1 3.54.29s2.38.47 3.55.83 2.32.81 3.42 1.33 2.16 1.12 3.15 1.79l-.99 1.79-.99 1.79-.99 1.79-.99 1.79c-.9-.53-1.81-1.01-2.7-1.43s-1.76-.78-2.61-1.07-1.66-.52-2.43-.68-1.5-.24-2.16-.24c-.63 0-1.19.07-1.66.19s-.88.31-1.2.53-.56.5-.72.8-.24.64-.24 1v.14c0 .51.22.96.61 1.35s.95.75 1.63 1.09 1.49.64 2.37.96 1.84.63 2.83.97c1.28.43 2.61.9 3.89 1.48s2.5 1.25 3.56 2.08 1.97 1.82 2.6 3.02 1.01 2.61 1.01 4.28v.14c0 2.03-.38 3.79-1.07 5.27s-1.7 2.71-2.96 3.68-2.76 1.68-4.44 2.16-3.55.7-5.53.7c-1.28 0-2.6-.11-3.93-.33s-2.68-.55-4.02-1.01-2.67-1.02-3.97-1.72-2.57-1.52-3.78-2.48Zm36.12-5.53v-17.34h-4.37v-8.88h4.37v-9.35h10.38v9.35h8.6v8.88h-8.6v15.64c0 .6.06 1.12.2 1.56s.33.81.61 1.11.62.51 1.04.66.92.22 1.5.22c.48 0 .94-.03 1.4-.09s.89-.14 1.32-.25.84-.25 1.24-.41.79-.34 1.17-.55v8.33c-.55.32-1.11.62-1.71.88s-1.23.48-1.9.67-1.38.33-2.14.42-1.57.15-2.44.15c-1.59 0-3.05-.16-4.34-.53s-2.43-.95-3.36-1.79-1.67-1.95-2.17-3.38-.77-3.17-.77-5.29Zm60.5-37.76h9.7l5.12 12.04 5.12 12.04 5.12 12.04 5.12 12.04h-10.99l-1.09-2.68-1.09-2.68-1.09-2.68-1.09-2.68h-20.21l-1.09 2.68-1.09 2.68-1.09 2.68-1.09 2.68h-10.72l5.12-12.04 5.12-12.04 5.12-12.04 5.12-12.04Zm11.06 28.13-1.59-3.88-1.59-3.88-1.59-3.88-1.59-3.88-1.59 3.88-1.59 3.88-1.59 3.88-1.59 3.88h12.7Zm16.59-16.59h10.52l1.47 5.55 1.47 5.55 1.47 5.55 1.47 5.55 1.72-5.58 1.72-5.58 1.72-5.58 1.72-5.58h8.95l1.74 5.6 1.74 5.6 1.74 5.6 1.74 5.6 1.5-5.57 1.5-5.57 1.5-5.57 1.5-5.57h10.31l-2.85 9.22-2.85 9.22-2.85 9.22-2.85 9.22h-9.36l-1.76-5.62-1.76-5.62-1.76-5.62-1.76-5.62-1.79 5.62-1.79 5.62-1.79 5.62-1.79 5.62h-9.29l-2.82-9.22-2.82-9.22-2.82-9.22-2.82-9.22Zm56.19 26.08v-.14c0-2 .38-3.73 1.09-5.19s1.74-2.68 3.04-3.64 2.87-1.67 4.66-2.14 3.8-.7 5.96-.7c.92 0 1.78.04 2.59.11s1.57.18 2.29.31 1.42.29 2.09.48 1.33.39 1.97.61v-.62c0-1.08-.17-2.03-.5-2.86s-.83-1.53-1.48-2.1-1.48-1-2.46-1.29-2.12-.44-3.42-.44c-.99 0-1.91.05-2.78.14s-1.7.22-2.5.39-1.59.38-2.39.62-1.6.52-2.43.83l-.65-1.98-.65-1.98-.65-1.98-.65-1.98c1.01-.44 2.01-.85 3.05-1.21s2.1-.67 3.24-.93 2.34-.46 3.65-.59 2.72-.21 4.27-.21c1.42 0 2.74.09 3.96.28s2.35.45 3.38.8 1.96.78 2.8 1.29 1.58 1.09 2.23 1.73c.68.68 1.27 1.45 1.77 2.29s.91 1.75 1.23 2.73.56 2.03.72 3.14.23 2.29.23 3.51v21.24h-10.04v-3.96c-.63.7-1.32 1.34-2.08 1.91s-1.59 1.06-2.5 1.46-1.9.72-2.97.94-2.24.33-3.51.33c-1.72 0-3.37-.25-4.87-.73s-2.86-1.21-4-2.15-2.06-2.12-2.7-3.51-.99-2.99-.99-4.8Zm23.83-2.39v-1.84c-.44-.2-.92-.39-1.43-.56s-1.04-.31-1.6-.43-1.14-.21-1.74-.28-1.22-.1-1.85-.1c-1.11 0-2.11.11-2.99.33s-1.64.54-2.26.97-1.1.96-1.42 1.58-.5 1.35-.5 2.17v.14c0 .7.15 1.33.41 1.87s.66 1.01 1.16 1.39 1.1.67 1.79.87 1.46.3 2.3.3c1.21 0 2.33-.17 3.32-.47s1.85-.76 2.57-1.33 1.27-1.25 1.66-2.03.59-1.65.59-2.59Zm16.73-23.69h10.38v7.37c.53-1.26 1.14-2.42 1.85-3.43s1.53-1.89 2.47-2.6 2.01-1.25 3.23-1.6 2.58-.5 4.12-.43v10.86h-.55c-1.72 0-3.28.26-4.65.79s-2.54 1.32-3.5 2.39-1.71 2.41-2.21 4.03-.77 3.52-.77 5.7v13.52h-10.38v-36.6Zm24.17 18.37v-.14c0-3.06.5-5.77 1.38-8.11s2.15-4.33 3.7-5.93 3.35-2.82 5.32-3.64 4.09-1.24 6.26-1.24c1.38 0 2.63.16 3.77.44s2.16.69 3.08 1.19 1.76 1.09 2.51 1.74 1.43 1.36 2.04 2.09V79.42h10.38v49.85h-10.38v-5.26c-.63.85-1.32 1.65-2.09 2.37s-1.61 1.35-2.54 1.88-1.95.95-3.07 1.24-2.35.45-3.7.45c-2.13 0-4.24-.42-6.2-1.24s-3.78-2.04-5.33-3.64-2.83-3.58-3.73-5.93-1.4-5.06-1.4-8.11Zm28.2 0v-.14c0-1.52-.25-2.91-.71-4.14s-1.11-2.31-1.92-3.19-1.76-1.58-2.82-2.05-2.22-.72-3.43-.72-2.38.25-3.44.71-2.03 1.15-2.85 2.03-1.48 1.95-1.94 3.19-.72 2.64-.72 4.17v.14c0 1.52.26 2.91.72 4.14s1.12 2.31 1.94 3.19 1.78 1.58 2.85 2.05 2.23.72 3.44.72 2.37-.25 3.43-.72 2.02-1.17 2.82-2.05 1.46-1.96 1.92-3.19.71-2.62.71-4.14Zm14.61 13.38 1.11-1.71 1.11-1.71 1.11-1.71 1.11-1.71c.99.72 1.99 1.35 2.99 1.89s2 1 2.98 1.37 1.95.64 2.88.83 1.83.28 2.69.28c.75 0 1.4-.07 1.95-.2s1-.32 1.36-.55.62-.53.8-.86.26-.71.26-1.12v-.14c0-.56-.22-1.03-.62-1.44s-.97-.75-1.66-1.06-1.52-.59-2.42-.87-1.88-.56-2.88-.86c-1.28-.38-2.6-.81-3.87-1.35s-2.47-1.21-3.52-2.04-1.93-1.85-2.56-3.09-.99-2.73-.99-4.5v-.14c0-1.86.38-3.52 1.05-4.95s1.66-2.66 2.87-3.64 2.65-1.74 4.26-2.25 3.36-.77 5.2-.77c1.16 0 2.35.1 3.54.29s2.38.47 3.55.83 2.32.81 3.42 1.33 2.16 1.12 3.15 1.79l-.99 1.79-.99 1.79-.99 1.79-.99 1.79c-.9-.53-1.81-1.01-2.7-1.43s-1.76-.78-2.61-1.07-1.66-.52-2.43-.68-1.5-.24-2.16-.24c-.63 0-1.19.07-1.66.19s-.88.31-1.2.53-.56.5-.72.8-.24.64-.24 1v.14c0 .51.22.96.61 1.35s.95.75 1.63 1.09 1.49.64 2.37.96 1.84.63 2.83.97c1.28.43 2.61.9 3.89 1.48s2.5 1.25 3.56 2.08 1.97 1.82 2.6 3.02 1.01 2.61 1.01 4.28v.14c0 2.03-.38 3.79-1.07 5.27s-1.7 2.71-2.96 3.68-2.76 1.68-4.44 2.16-3.55.7-5.53.7c-1.28 0-2.6-.11-3.93-.33s-2.68-.55-4.02-1.01-2.67-1.02-3.97-1.72-2.57-1.52-3.78-2.48ZM223.9 178.2h19.53c2.85 0 5.42.42 7.67 1.21s4.18 1.94 5.76 3.39 2.79 3.22 3.62 5.22 1.26 4.26 1.26 6.7v.14c0 2.77-.54 5.2-1.51 7.29s-2.38 3.85-4.13 5.26-3.83 2.47-6.14 3.18-4.86 1.07-7.54 1.07h-7.99V226h-10.52v-47.8Zm18.85 24.11c1.31 0 2.49-.2 3.52-.55s1.9-.88 2.62-1.53 1.26-1.43 1.63-2.3.56-1.84.56-2.86v-.14c0-1.18-.2-2.22-.59-3.12s-.96-1.66-1.7-2.27-1.64-1.07-2.69-1.38-2.24-.47-3.55-.47h-8.13v14.61h8.33Zm23.62-12.91h10.38v7.37c.53-1.26 1.14-2.42 1.85-3.43s1.53-1.89 2.47-2.6 2.01-1.25 3.23-1.6 2.58-.5 4.12-.43v10.86h-.55c-1.72 0-3.28.26-4.65.79s-2.54 1.32-3.5 2.39-1.7 2.41-2.21 4.03-.77 3.52-.77 5.7V226h-10.38v-36.6Zm26.7-13.25H304v9.22h-10.93v-9.22Zm.27 13.25h10.38V226h-10.38v-36.6Zm33.46 10.72 1.72-2.68 1.72-2.68 1.72-2.68 1.72-2.68h10.86l-3.09 4.47-3.09 4.47-3.09 4.47-3.09 4.47 3.23 4.68 3.23 4.68 3.23 4.68 3.23 4.68h-11.13l-1.84-2.85-1.84-2.85-1.84-2.85-1.84-2.85-1.84 2.85-1.84 2.85-1.84 2.85-1.84 2.85h-10.86l3.21-4.64 3.21-4.64 3.21-4.64 3.21-4.64-3.09-4.51-3.09-4.51-3.09-4.51-3.09-4.51H320l1.71 2.68 1.71 2.68 1.71 2.68 1.71 2.68Zm39.87 2.12v-.14c0-3.4.64-6.64 1.83-9.6s2.93-5.62 5.13-7.86 4.85-4.06 7.88-5.31 6.42-1.95 10.09-1.95c2.25 0 4.28.19 6.12.54s3.5.86 5.02 1.51 2.89 1.43 4.16 2.33 2.44 1.9 3.55 3l-1.67 1.93-1.67 1.93-1.67 1.93-1.67 1.93c-.92-.84-1.85-1.59-2.79-2.25s-1.91-1.23-2.91-1.7-2.03-.83-3.11-1.07-2.21-.37-3.41-.37c-2.01 0-3.89.42-5.57 1.17s-3.16 1.85-4.39 3.2-2.21 2.95-2.88 4.73-1.03 3.73-1.03 5.78v.14c0 2.05.35 4.01 1.01 5.8s1.62 3.41 2.84 4.78 2.7 2.48 4.38 3.24 3.57 1.19 5.62 1.19c1.37 0 2.6-.14 3.74-.39s2.19-.64 3.18-1.12 1.94-1.08 2.86-1.76 1.84-1.46 2.78-2.32l1.67 1.69 1.67 1.69 1.67 1.69 1.67 1.69c-1.23 1.31-2.49 2.51-3.84 3.55s-2.78 1.95-4.35 2.69-3.27 1.31-5.15 1.7-3.96.59-6.26.59c-3.52 0-6.81-.68-9.77-1.91s-5.58-3.02-7.77-5.23-3.93-4.86-5.13-7.81-1.85-6.2-1.85-9.63Zm47.18 13.25v-.14c0-2 .38-3.73 1.09-5.19s1.74-2.68 3.04-3.64 2.87-1.67 4.66-2.14 3.8-.7 5.96-.7c.92 0 1.78.04 2.59.11s1.57.18 2.29.31 1.42.29 2.09.47 1.33.39 1.97.61v-.61c0-1.08-.17-2.03-.5-2.86s-.83-1.53-1.48-2.1-1.48-1-2.46-1.29-2.12-.44-3.42-.44c-.99 0-1.91.05-2.78.14s-1.7.22-2.5.39-1.59.38-2.39.62-1.6.52-2.43.83l-.65-1.98-.65-1.98-.65-1.98-.65-1.98c1.01-.44 2.01-.85 3.04-1.21s2.1-.67 3.24-.93 2.34-.46 3.65-.59 2.72-.21 4.27-.21c1.42 0 2.74.09 3.96.28s2.35.45 3.37.8 1.96.78 2.8 1.29 1.58 1.09 2.23 1.73c.68.68 1.27 1.45 1.77 2.29s.91 1.75 1.23 2.73.56 2.03.72 3.14.23 2.29.23 3.51v21.24h-10.04v-3.96c-.63.7-1.32 1.34-2.08 1.91s-1.59 1.06-2.5 1.47-1.9.72-2.97.94-2.24.33-3.5.33c-1.72 0-3.37-.25-4.87-.73s-2.86-1.21-4-2.15-2.06-2.12-2.7-3.51-.99-2.99-.99-4.8Zm23.83-2.39v-1.84c-.44-.2-.92-.39-1.43-.56s-1.04-.31-1.6-.43-1.14-.21-1.74-.28-1.22-.1-1.85-.1c-1.11 0-2.11.11-2.99.33s-1.64.54-2.26.97-1.1.96-1.42 1.58-.5 1.35-.5 2.17v.14c0 .7.15 1.33.41 1.87s.66 1.01 1.16 1.39 1.1.67 1.79.87 1.46.3 2.3.3c1.21 0 2.33-.17 3.32-.47s1.85-.76 2.57-1.33 1.27-1.25 1.66-2.03.59-1.65.59-2.59Zm16.73-23.7h10.38v5.19c.6-.77 1.24-1.52 1.94-2.21s1.48-1.33 2.34-1.87 1.81-.99 2.88-1.3 2.24-.49 3.56-.49c1.96 0 3.72.32 5.25.94s2.84 1.53 3.9 2.7 1.88 2.61 2.43 4.28.84 3.57.84 5.67v23.7h-10.38v-20.42c0-1.23-.15-2.31-.42-3.24-.28-.93-.69-1.71-1.23-2.33s-1.2-1.09-1.97-1.41-1.66-.47-2.65-.47-1.89.16-2.68.47-1.48.78-2.04 1.41-1 1.4-1.3 2.33-.46 2.01-.46 3.24v20.42h-10.38v-36.6Zm38.3 26.09v-.14c0-2 .38-3.73 1.09-5.19s1.74-2.68 3.04-3.64 2.87-1.67 4.66-2.14 3.8-.7 5.96-.7c.92 0 1.78.04 2.59.11s1.57.18 2.29.31 1.42.29 2.09.47 1.33.39 1.97.61v-.61c0-1.08-.17-2.03-.5-2.86s-.83-1.53-1.48-2.1-1.48-1-2.46-1.29-2.12-.44-3.42-.44c-.99 0-1.91.05-2.78.14s-1.7.22-2.5.39-1.59.38-2.39.62-1.6.52-2.43.83l-.65-1.98-.65-1.98-.65-1.98-.65-1.98c1.01-.44 2.01-.85 3.05-1.21s2.1-.67 3.24-.93 2.34-.46 3.65-.59 2.72-.21 4.27-.21c1.42 0 2.74.09 3.96.28s2.35.45 3.38.8 1.96.78 2.8 1.29 1.58 1.09 2.23 1.73c.68.68 1.27 1.45 1.77 2.29s.91 1.75 1.23 2.73.56 2.03.72 3.14c.16 1.11.23 2.29.23 3.51v21.24h-10.04v-3.96c-.63.7-1.32 1.34-2.08 1.91s-1.59 1.06-2.5 1.47-1.9.72-2.97.94-2.24.33-3.51.33c-1.72 0-3.37-.25-4.87-.73s-2.86-1.21-4-2.15-2.06-2.12-2.7-3.51c-.64-1.39-.99-2.99-.99-4.8Zm23.83-2.39v-1.84c-.44-.2-.92-.39-1.43-.56s-1.04-.31-1.6-.43-1.14-.21-1.74-.28-1.22-.1-1.85-.1c-1.11 0-2.11.11-2.99.33s-1.64.54-2.26.97-1.1.96-1.42 1.58-.5 1.35-.5 2.17v.14c0 .7.15 1.33.41 1.87s.66 1.01 1.16 1.39 1.1.67 1.79.87 1.46.3 2.3.3c1.21 0 2.33-.17 3.32-.47s1.85-.76 2.57-1.33 1.27-1.25 1.66-2.03.59-1.65.59-2.59Zm15.09-5.33v-.14c0-3.06.5-5.77 1.38-8.11s2.15-4.33 3.7-5.93c1.54-1.6 3.35-2.82 5.32-3.64s4.09-1.24 6.26-1.24c1.38 0 2.63.16 3.77.44s2.16.69 3.08 1.19 1.76 1.09 2.51 1.74 1.43 1.36 2.04 2.09v-18.03h10.38v49.85h-10.38v-5.26c-.63.85-1.32 1.65-2.09 2.37s-1.61 1.35-2.54 1.88-1.95.95-3.07 1.24-2.35.45-3.7.45c-2.13 0-4.24-.42-6.2-1.24s-3.78-2.04-5.33-3.64c-1.55-1.6-2.83-3.58-3.73-5.93s-1.4-5.06-1.4-8.11Zm28.2 0v-.14c0-1.52-.25-2.91-.71-4.14s-1.11-2.31-1.92-3.19-1.76-1.58-2.82-2.05-2.22-.72-3.43-.72-2.38.25-3.44.71-2.03 1.15-2.85 2.03-1.48 1.95-1.94 3.19-.72 2.64-.72 4.17v.14c0 1.52.26 2.91.72 4.14s1.12 2.31 1.94 3.19 1.78 1.58 2.85 2.05 2.23.72 3.44.72 2.37-.25 3.43-.72 2.02-1.17 2.82-2.05 1.46-1.96 1.92-3.19.71-2.62.71-4.14Zm17.68-31.62h10.93v9.22h-10.93v-9.22Zm.27 13.25h10.38V226h-10.38v-36.6Zm16.32 18.51v-.14c0-2.61.47-5.11 1.33-7.38.86-2.28 2.13-4.33 3.72-6.06s3.53-3.13 5.72-4.1 4.66-1.51 7.32-1.51c3.06 0 5.7.59 7.94 1.65s4.09 2.56 5.55 4.4 2.55 3.99 3.26 6.34 1.07 4.89 1.07 7.48c0 .2 0 .42-.01.64l-.03.68c-.01.23-.03.47-.04.7s-.03.48-.05.71h-25.47c.26 1.18.65 2.22 1.18 3.11s1.17 1.64 1.94 2.24 1.64 1.06 2.62 1.36 2.05.46 3.21.46c.87 0 1.68-.07 2.45-.21s1.5-.36 2.22-.67 1.41-.69 2.1-1.17 1.39-1.04 2.11-1.71l1.49 1.31 1.49 1.31 1.49 1.31 1.49 1.31c-.85 1.06-1.8 2.01-2.85 2.85s-2.19 1.56-3.43 2.15-2.58 1.05-4.03 1.36-3 .47-4.65.47c-2.75 0-5.32-.48-7.63-1.38s-4.35-2.21-6.06-3.88c-1.7-1.66-3.06-3.68-4-5.98s-1.44-4.88-1.44-7.68Zm25.81-3.07c-.15-1.16-.44-2.23-.85-3.18s-.95-1.78-1.6-2.46-1.42-1.22-2.3-1.59-1.87-.56-2.96-.56-2.06.19-2.94.55-1.66.89-2.33 1.57-1.23 1.5-1.68 2.46-.77 2.03-.98 3.2h15.64Zm15.77-15.43h10.38v5.19c.6-.77 1.24-1.52 1.94-2.21s1.48-1.33 2.34-1.87 1.81-.99 2.88-1.3 2.24-.49 3.56-.49c1.96 0 3.72.32 5.25.94s2.84 1.53 3.9 2.7 1.88 2.61 2.43 4.28c.55 1.67.84 3.57.84 5.67v23.7h-10.38V205.6c0-1.23-.15-2.31-.42-3.24s-.69-1.71-1.23-2.33-1.2-1.09-1.97-1.41-1.66-.47-2.65-.47-1.89.16-2.68.47-1.48.78-2.04 1.41-1 1.4-1.3 2.33c-.3.93-.46 2.01-.46 3.24v20.42h-10.38v-36.6Zm37.62 31.75 1.11-1.71 1.11-1.71 1.11-1.71 1.11-1.71c.99.72 1.99 1.35 2.99 1.89s2 1 2.98 1.37 1.95.64 2.88.83 1.83.28 2.69.28c.75 0 1.4-.07 1.95-.2s1-.32 1.36-.55.62-.53.8-.86.26-.71.26-1.12v-.14c0-.56-.22-1.03-.62-1.44s-.97-.75-1.66-1.06-1.52-.59-2.42-.87-1.88-.56-2.88-.86c-1.28-.38-2.6-.81-3.87-1.35s-2.47-1.21-3.52-2.04-1.93-1.85-2.56-3.09c-.62-1.25-.99-2.73-.99-4.5v-.14c0-1.86.38-3.52 1.05-4.95s1.66-2.66 2.87-3.64 2.65-1.74 4.26-2.25 3.36-.77 5.2-.77c1.16 0 2.35.1 3.54.29s2.38.47 3.55.83 2.32.81 3.42 1.33 2.16 1.12 3.15 1.78l-.99 1.79-.99 1.79-.99 1.79-.99 1.79c-.9-.53-1.81-1.01-2.7-1.43s-1.76-.78-2.61-1.07-1.66-.52-2.43-.68-1.5-.24-2.16-.24c-.63 0-1.19.07-1.66.19s-.88.31-1.2.53-.56.5-.72.8-.24.64-.24 1v.14c0 .51.22.96.61 1.35s.95.75 1.63 1.09 1.49.64 2.37.96 1.84.63 2.83.97c1.28.43 2.61.9 3.89 1.48s2.5 1.25 3.56 2.08 1.97 1.82 2.6 3.02 1.01 2.61 1.01 4.28v.14c0 2.03-.38 3.79-1.07 5.27-.69 1.49-1.7 2.71-2.96 3.68s-2.76 1.68-4.44 2.16-3.55.7-5.53.7c-1.28 0-2.6-.11-3.93-.33s-2.68-.55-4.02-1.01-2.67-1.02-3.97-1.72-2.57-1.52-3.78-2.48Zm-449.4 50.02v-.14c0-3.06.5-5.77 1.38-8.11s2.15-4.33 3.69-5.93 3.35-2.82 5.32-3.64 4.09-1.24 6.26-1.24c1.38 0 2.63.16 3.77.44s2.16.69 3.08 1.19 1.76 1.09 2.51 1.74 1.43 1.36 2.04 2.09v-18.03h10.38v49.85h-10.38v-5.26c-.63.85-1.32 1.65-2.09 2.37s-1.61 1.35-2.54 1.88-1.95.95-3.08 1.24-2.35.45-3.7.45c-2.13 0-4.24-.42-6.2-1.24s-3.78-2.04-5.33-3.64-2.83-3.58-3.73-5.93-1.4-5.06-1.4-8.11Zm28.2 0v-.14c0-1.52-.25-2.91-.71-4.14s-1.11-2.31-1.92-3.19-1.76-1.58-2.82-2.05-2.22-.72-3.43-.72-2.38.25-3.44.71-2.03 1.15-2.85 2.03-1.48 1.95-1.94 3.19-.72 2.64-.72 4.17v.14c0 1.52.26 2.91.72 4.14s1.12 2.31 1.94 3.19 1.78 1.58 2.85 2.05 2.23.72 3.44.72 2.37-.25 3.43-.72 2.02-1.17 2.82-2.05 1.46-1.96 1.92-3.19.71-2.62.71-4.14Zm76.13-29.57h22.19c1.37 0 2.66.09 3.87.28s2.35.46 3.4.82 2.01.8 2.89 1.33 1.65 1.13 2.34 1.81c.55.55 1.02 1.12 1.43 1.73s.75 1.25 1.02 1.92.48 1.38.61 2.13.2 1.53.2 2.35v.14c0 1.35-.18 2.55-.5 3.62s-.79 2.01-1.36 2.84-1.25 1.56-2 2.19-1.57 1.18-2.42 1.66c1.38.53 2.63 1.13 3.73 1.83s2.04 1.5 2.82 2.43 1.37 2 1.78 3.24.62 2.64.62 4.25v.14c0 2.19-.44 4.1-1.28 5.74s-2.06 3-3.62 4.1-3.46 1.91-5.64 2.46-4.65.82-7.35.82h-22.74v-47.8Zm27.52 14.14c0-.79-.15-1.49-.45-2.09s-.75-1.12-1.33-1.54-1.31-.74-2.16-.95-1.84-.33-2.95-.33h-10.38v10.11h9.7c1.16 0 2.22-.09 3.14-.29s1.73-.5 2.39-.9 1.17-.93 1.52-1.57.53-1.4.53-2.29v-.14Zm-5.12 13.93h-12.16v10.52h12.5c1.16 0 2.21-.1 3.12-.31s1.7-.52 2.34-.95 1.14-.96 1.47-1.62.51-1.42.51-2.31v-.14c0-.8-.15-1.53-.46-2.16s-.78-1.19-1.41-1.63-1.44-.8-2.42-1.03-2.14-.36-3.49-.36Zm21.57 9.22v-.14c0-2 .38-3.73 1.09-5.19s1.74-2.68 3.04-3.64 2.87-1.67 4.66-2.14 3.8-.7 5.96-.7c.92 0 1.78.04 2.59.11s1.57.18 2.29.31 1.42.29 2.09.47 1.33.39 1.97.61v-.61c0-1.08-.17-2.03-.5-2.86s-.83-1.53-1.48-2.1-1.48-1-2.46-1.29-2.12-.44-3.42-.44c-.99 0-1.91.05-2.78.14s-1.7.22-2.5.39-1.59.38-2.39.62-1.6.52-2.43.83l-.65-1.98-.65-1.98-.65-1.98-.65-1.98c1.01-.44 2.01-.85 3.05-1.21s2.1-.67 3.24-.93 2.34-.46 3.65-.59 2.72-.21 4.27-.21c1.42 0 2.74.09 3.96.28s2.35.45 3.38.8 1.96.78 2.8 1.29 1.58 1.09 2.23 1.73c.68.68 1.27 1.45 1.77 2.29s.91 1.75 1.23 2.73.56 2.03.72 3.14.23 2.29.23 3.51v21.24h-10.04v-3.96c-.63.7-1.32 1.34-2.08 1.91s-1.59 1.06-2.5 1.47-1.9.72-2.97.94-2.24.33-3.51.33c-1.72 0-3.37-.25-4.87-.73s-2.86-1.21-4-2.15-2.06-2.12-2.7-3.51-.99-2.99-.99-4.8Zm23.83-2.39v-1.84c-.44-.2-.92-.39-1.43-.56s-1.04-.31-1.6-.43-1.14-.21-1.74-.28-1.22-.1-1.85-.1c-1.11 0-2.11.11-2.99.33s-1.64.54-2.26.97-1.1.96-1.42 1.58-.5 1.35-.5 2.17v.14c0 .7.15 1.33.41 1.87s.66 1.01 1.16 1.39 1.1.67 1.79.87 1.46.3 2.3.3c1.21 0 2.33-.17 3.32-.47s1.85-.76 2.57-1.33 1.27-1.25 1.66-2.03.59-1.65.59-2.59Zm17.2-36.94h10.38v49.85h-10.38v-49.85Zm15.91 39.33v-.14c0-2 .38-3.73 1.09-5.19s1.74-2.68 3.04-3.64 2.87-1.67 4.66-2.14 3.8-.7 5.96-.7c.92 0 1.78.04 2.59.11s1.57.18 2.29.31 1.42.29 2.09.47 1.33.39 1.97.61v-.61c0-1.08-.17-2.03-.5-2.86s-.83-1.53-1.48-2.1-1.48-1-2.46-1.29-2.12-.44-3.42-.44c-.99 0-1.91.05-2.78.14s-1.7.22-2.5.39-1.59.38-2.39.62-1.6.52-2.43.83l-.65-1.98-.65-1.98-.65-1.98-.65-1.98c1.01-.44 2.01-.85 3.05-1.21s2.1-.67 3.24-.93 2.34-.46 3.65-.59 2.72-.21 4.27-.21c1.42 0 2.74.09 3.96.28s2.35.45 3.38.8 1.96.78 2.8 1.29 1.58 1.09 2.23 1.73c.68.68 1.27 1.45 1.77 2.29.5.84.91 1.75 1.23 2.73s.56 2.03.72 3.14c.16 1.11.23 2.29.23 3.51v21.24h-10.04v-3.96c-.63.7-1.32 1.34-2.08 1.91s-1.59 1.06-2.5 1.47-1.9.72-2.97.94-2.24.33-3.51.33c-1.72 0-3.37-.25-4.87-.73s-2.86-1.21-4-2.15c-1.14-.95-2.06-2.12-2.7-3.51s-.99-2.99-.99-4.8Zm23.83-2.39v-1.84c-.44-.2-.92-.39-1.43-.56s-1.04-.31-1.6-.43-1.14-.21-1.74-.28-1.22-.1-1.85-.1c-1.11 0-2.11.11-2.99.33s-1.64.54-2.26.97-1.1.96-1.42 1.58-.5 1.35-.5 2.17v.14c0 .7.15 1.33.41 1.87s.66 1.01 1.16 1.39 1.1.67 1.79.87 1.46.3 2.3.3c1.21 0 2.33-.17 3.32-.47s1.85-.76 2.57-1.33 1.27-1.25 1.66-2.03.59-1.65.59-2.59Zm15.09-5.33v-.14c0-3.06.5-5.77 1.38-8.11s2.15-4.33 3.7-5.93c1.54-1.6 3.35-2.82 5.32-3.64s4.09-1.24 6.26-1.24c1.38 0 2.63.16 3.77.44s2.16.69 3.08 1.19 1.76 1.09 2.51 1.74 1.43 1.36 2.04 2.09v-18.03h10.38v49.85h-10.38v-5.26c-.63.85-1.32 1.65-2.09 2.37s-1.61 1.35-2.54 1.88-1.95.95-3.07 1.24-2.35.45-3.7.45c-2.13 0-4.24-.42-6.2-1.24s-3.78-2.04-5.33-3.64-2.83-3.58-3.73-5.93c-.9-2.35-1.4-5.06-1.4-8.11Zm28.2 0v-.14c0-1.52-.25-2.91-.71-4.14-.45-1.23-1.11-2.31-1.92-3.19s-1.76-1.58-2.82-2.05-2.22-.72-3.43-.72-2.38.25-3.44.71-2.03 1.15-2.85 2.03-1.48 1.95-1.94 3.19-.72 2.64-.72 4.17v.14c0 1.52.26 2.91.72 4.14s1.12 2.31 1.94 3.19 1.78 1.58 2.85 2.05 2.23.72 3.44.72 2.37-.25 3.43-.72 2.02-1.17 2.82-2.05c.81-.88 1.46-1.96 1.92-3.19.45-1.23.71-2.62.71-4.14Zm15.7.14v-.14c0-2.63.53-5.13 1.5-7.41.97-2.28 2.39-4.33 4.16-6.06s3.9-3.12 6.3-4.08 5.06-1.5 7.92-1.5 5.48.52 7.87 1.48c2.38.95 4.49 2.33 6.25 4.04s3.16 3.74 4.13 6.01a18.9 18.9 0 0 1 1.49 7.39v.14c0 2.63-.53 5.13-1.5 7.41s-2.39 4.33-4.16 6.06c-1.77 1.72-3.9 3.12-6.3 4.08s-5.06 1.5-7.92 1.5-5.48-.52-7.87-1.48-4.49-2.33-6.25-4.04-3.16-3.74-4.13-6.01-1.49-4.76-1.49-7.39Zm29.36 0v-.14c0-1.35-.24-2.65-.7-3.86-.45-1.2-1.12-2.3-1.97-3.22s-1.87-1.68-3.04-2.21-2.49-.82-3.92-.82-2.82.29-3.99.8-2.17 1.25-2.98 2.16-1.44 1.99-1.87 3.17c-.43 1.19-.65 2.49-.65 3.83v.14c0 1.35.24 2.65.7 3.85.45 1.2 1.12 2.29 1.97 3.22s1.87 1.68 3.04 2.21 2.49.82 3.92.82 2.82-.29 3.99-.8 2.17-1.25 2.98-2.16 1.44-1.99 1.87-3.17c.43-1.19.65-2.48.65-3.83ZM143.1 44.06l-6.96-8.02-6.96-8.02-6.96-8.02-6.96-8.02-10.18-3-10.18-3-10.18-3-10.18-3-10.18 3-10.18 3-10.18 3-10.18 3L26.87 20l-6.95 8.02-6.95 8.02-6.95 8.02-1.51 10.5L3 65.06l-1.51 10.5-1.51 10.5 4.41 9.65 4.41 9.65 4.41 9.65 4.41 9.65 8.92 5.74 8.92 5.74 8.92 5.74 8.92 5.74h42.47l8.92-5.74 8.92-5.74 8.92-5.74 8.92-5.74 4.41-9.65 4.41-9.65 4.41-9.65 4.41-9.65-1.51-10.5-1.51-10.5-1.51-10.5-1.51-10.5ZM97.04 79.1a3.952 3.952 0 0 1-2.89-1.26c-.36-.39-.65-.84-.84-1.35s-.27-1.06-.24-1.64c.03-.53.18-1.02.4-1.47s.54-.84.91-1.18.81-.6 1.28-.78.99-.28 1.52-.28h7.64c.02 0 .05 0 .07-.01s.04-.02.06-.04.03-.04.04-.06.01-.05.01-.07V63.8s0-.05-.01-.07-.02-.04-.04-.06-.04-.03-.06-.04-.05-.01-.07-.01h-7.64c-.53 0-1.04-.1-1.52-.28s-.91-.45-1.28-.78-.68-.73-.91-1.18-.37-.94-.4-1.47c-.04-.58.05-1.13.24-1.64s.47-.96.84-1.35.8-.7 1.29-.92 1.03-.34 1.6-.34h7.77s.05 0 .07-.01.04-.02.06-.04.03-.04.04-.06.01-.05.01-.07v-7.16s0-.05-.01-.07-.02-.04-.04-.06-.04-.03-.06-.04-.05-.01-.07-.01h-7.64c-.53 0-1.04-.1-1.52-.28s-.91-.45-1.28-.78-.68-.73-.91-1.18-.37-.94-.4-1.47c-.04-.58.05-1.13.24-1.64s.47-.96.84-1.35.8-.7 1.29-.92 1.03-.34 1.6-.34h7.02s.06 0 .09-.02.05-.03.06-.06.03-.05.03-.08v-.09c-.42-1.11-1-2.14-1.72-3.07s-1.57-1.74-2.52-2.42-2.01-1.22-3.15-1.59-2.34-.58-3.6-.59c-.52 0-1.02-.1-1.48-.28s-.89-.44-1.25-.76-.67-.71-.9-1.15-.37-.92-.42-1.43c-.05-.59.03-1.15.21-1.67s.47-.98.83-1.38.81-.71 1.3-.94 1.04-.35 1.62-.35c2.73 0 5.32.55 7.69 1.56s4.5 2.45 6.29 4.24a19.77 19.77 0 0 1 5.8 13.98v31.4c-.12 2.6-.74 5.08-1.77 7.33s-2.47 4.27-4.23 5.97-3.82 3.08-6.11 4.04-4.79 1.51-7.41 1.54c-.55 0-1.07-.09-1.56-.27s-.94-.45-1.32-.79-.7-.74-.93-1.2-.37-.97-.39-1.51a4.008 4.008 0 0 1 2.38-3.85c.48-.21 1.02-.33 1.59-.33 1.21 0 2.38-.18 3.48-.52s2.13-.84 3.07-1.46 1.78-1.38 2.51-2.25 1.33-1.83 1.78-2.87c.01-.03.02-.06.01-.09s-.01-.06-.03-.08l-.06-.06c-.02-.02-.06-.02-.09-.02h-6.8ZM77.56 24.54c.3-.05.62-.08.95-.11s.65-.05.96-.06l.86-.03c.26-.01.47 0 .62 0 .55 0 1.07.11 1.55.31s.9.49 1.26.85.65.79.85 1.26.31 1 .31 1.55-.11 1.07-.31 1.54-.49.89-.85 1.25-.79.64-1.26.85-1 .33-1.55.34c-.26 0-.55.02-.84.04s-.59.04-.86.05-.52.03-.71.05-.33.02-.38.02a3.972 3.972 0 0 1-2.57-.95c-.35-.3-.65-.66-.88-1.06a4.008 4.008 0 0 1-.4-2.93c.13-.5.35-.97.65-1.38s.68-.76 1.12-1.04.94-.46 1.48-.55ZM59.82 43.52l.65-.17.65-.17.65-.17.65-.17c.54-.12 1.07-.13 1.58-.04s.99.28 1.42.55.81.63 1.11 1.04.53.91.65 1.44c.12.54.13 1.07.04 1.58s-.28.99-.55 1.42-.62.81-1.04 1.11-.91.53-1.44.65c0 0-.15.05-.39.12s-.57.16-.92.25-.74.18-1.08.25-.65.11-.87.1c-.43-.02-.85-.1-1.25-.23s-.78-.33-1.11-.58-.64-.55-.88-.89-.44-.74-.57-1.18c-.15-.53-.19-1.06-.13-1.57s.22-1.01.47-1.45.58-.84.98-1.17.87-.58 1.4-.73ZM49.49 63.84c.26-.14.46-.26.64-.36s.34-.18.49-.26.31-.16.5-.25.39-.19.66-.32c.48-.23.98-.37 1.49-.41s1.01 0 1.49.14.93.36 1.33.66.74.69 1 1.15c.29.5.45 1.04.5 1.58s0 1.07-.16 1.58-.42.98-.76 1.39-.78.75-1.3 1c-.27.13-.47.23-.64.31s-.3.15-.44.22-.27.14-.43.23l-.63.35c-.15.09-.31.16-.47.22s-.32.12-.48.16-.33.07-.49.09a4.028 4.028 0 0 1-1.51-.1c-.33-.08-.65-.22-.96-.39s-.58-.38-.83-.63-.47-.54-.65-.86a3.882 3.882 0 0 1-.3-3.07c.16-.5.4-.97.73-1.39s.74-.77 1.22-1.04Zm-24.65-1.42c.1-.09.24-.22.4-.37s.35-.31.54-.48.38-.33.55-.47.32-.27.42-.35a4.018 4.018 0 0 1 3.04-.86c.53.07 1.03.24 1.5.52s.88.65 1.22 1.12c.31.43.51.91.62 1.4s.12 1 .04 1.49-.25.97-.5 1.42-.59.84-1 1.18c-.09.07-.19.16-.31.26s-.24.21-.36.32-.25.22-.37.33-.23.21-.33.31c-.19.18-.4.34-.61.47s-.44.25-.67.34-.47.16-.71.2-.49.07-.73.07c-.26 0-.53-.03-.79-.08s-.52-.13-.76-.24-.49-.24-.71-.39-.44-.34-.63-.55c-.38-.4-.65-.86-.83-1.34s-.26-1-.25-1.5.13-1.01.34-1.49.51-.91.91-1.29ZM30.92 91c-.15.22-.28.4-.38.55s-.19.28-.28.42-.17.27-.28.43-.22.36-.37.6c-.19.3-.41.57-.66.81s-.52.43-.82.59-.6.28-.93.36a4.127 4.127 0 0 1-1.63.07c-.21-.03-.43-.09-.63-.16s-.41-.16-.61-.27-.39-.24-.58-.38c-.4-.32-.72-.7-.96-1.12s-.39-.88-.47-1.36-.06-.97.03-1.45.28-.95.54-1.38l.42-.67c.12-.19.23-.36.34-.52s.22-.33.35-.52.28-.41.47-.68c.33-.47.74-.84 1.19-1.12s.97-.46 1.49-.53 1.06-.05 1.58.09 1.02.38 1.48.74c.41.33.74.73.98 1.17s.39.92.44 1.42.03 1-.09 1.5-.33.97-.64 1.41Zm1.78-14.52c.64-.68 1.15-1.22 1.62-1.69s.87-.87 1.3-1.25.86-.76 1.38-1.17 1.11-.88 1.85-1.44a4.207 4.207 0 0 1 2.87-.84c.49.04.99.17 1.44.39s.86.53 1.21.93c.38.44.65.93.8 1.45s.21 1.05.15 1.58-.21 1.04-.47 1.51-.62.89-1.07 1.24c-.68.52-1.2.92-1.65 1.28s-.81.67-1.17.99-.7.66-1.1 1.07-.87.9-1.46 1.53c-.2.21-.41.39-.63.55s-.46.29-.71.39-.5.18-.76.23-.52.08-.79.08c-.25 0-.49-.02-.74-.07s-.48-.11-.72-.21-.46-.21-.68-.34-.42-.3-.61-.48c-.4-.38-.7-.83-.9-1.31s-.3-1-.3-1.51.09-1.04.28-1.53.48-.95.86-1.36Zm48.11 33.22c-1.53.02-2.99.29-4.32.78s-2.53 1.2-3.55 2.08-1.86 1.93-2.48 3.11-.99 2.49-1.09 3.89c-.04.52-.18 1.02-.39 1.46s-.51.84-.87 1.17-.77.6-1.23.78-.95.28-1.47.28h-.28a3.944 3.944 0 0 1-2.72-1.36c-.33-.38-.59-.83-.76-1.32s-.24-1.02-.2-1.57c.18-2.46.83-4.76 1.88-6.84s2.49-3.93 4.23-5.47 3.79-2.78 6.05-3.62 4.74-1.31 7.35-1.31c.61 0 1.18.14 1.69.38s.97.59 1.33 1.02.64.93.8 1.49.2 1.16.09 1.79c-.08.48-.25.93-.5 1.33s-.56.74-.92 1.03-.78.52-1.23.67-.93.24-1.42.25Zm.02-15.3c-1.65 0-3.29.18-4.91.52s-3.21.83-4.76 1.47-3.05 1.44-4.49 2.38-2.82 2.03-4.12 3.25a29.42 29.42 0 0 0-6.12 8.19c-.75 1.5-1.36 3.05-1.81 4.62s-.75 3.17-.88 4.77c-.04.52-.18 1.01-.4 1.45s-.52.83-.87 1.16-.77.59-1.23.77-.95.28-1.46.28h-.32c-.55-.04-1.06-.2-1.52-.44s-.86-.56-1.19-.95a3.978 3.978 0 0 1-.94-2.9c.35-4.41 1.62-8.64 3.61-12.52s4.68-7.39 7.88-10.35 6.91-5.37 10.92-7.05 8.32-2.6 12.73-2.6c.57 0 1.12.12 1.61.34s.93.54 1.3.93.65.85.83 1.36.27 1.07.22 1.66c-.04.52-.18 1.01-.41 1.45s-.54.83-.91 1.16-.8.59-1.27.77-.98.28-1.5.28Zm-.05-15.31c-3.96.02-7.85.59-11.58 1.67s-7.3 2.67-10.61 4.7-6.39 4.52-9.12 7.41-5.12 6.16-7.08 9.79c-.18.33-.4.63-.65.89s-.53.48-.84.65-.63.31-.97.4-.69.14-1.04.14c-.16 0-.32 0-.48-.03s-.32-.05-.48-.09-.32-.09-.47-.15-.31-.13-.46-.21a3.981 3.981 0 0 1-1.92-2.36c-.15-.49-.2-1-.15-1.52s.2-1.03.46-1.51c2.32-4.28 5.15-8.15 8.38-11.55s6.87-6.33 10.81-8.73 8.17-4.26 12.6-5.52 9.05-1.93 13.76-1.93a3.952 3.952 0 0 1 2.9 1.26c.36.39.65.85.83 1.36s.27 1.07.23 1.65a3.834 3.834 0 0 1-1.33 2.64 4.314 4.314 0 0 1-2.81 1.05Zm.03-15.48c-1.31 0-2.51.05-3.65.13s-2.22.21-3.29.38-2.14.38-3.24.63-2.25.54-3.49.87l-.26.06c-.09.02-.17.03-.26.04l-.26.03c-.09.01-.17 0-.26 0-.45 0-.89-.08-1.31-.22s-.8-.36-1.15-.63-.65-.6-.89-.98-.42-.81-.53-1.27c-.12-.53-.12-1.05-.02-1.55s.29-.98.56-1.4.63-.81 1.04-1.11.89-.54 1.42-.68c1.37-.36 2.65-.69 3.9-.97s2.48-.51 3.72-.7 2.5-.33 3.84-.43 2.74-.15 4.26-.15a3.952 3.952 0 0 1 2.9 1.26c.36.39.65.85.83 1.36s.27 1.06.23 1.65c-.04.53-.18 1.02-.41 1.46s-.54.84-.91 1.17-.81.59-1.28.78-.98.28-1.51.28Zm.14-15.48-.69.05c-.42.03-1 .07-1.62.12s-1.29.08-1.89.12-1.13.05-1.49.05c-.49 0-.97-.1-1.41-.27s-.86-.44-1.23-.76-.67-.71-.89-1.15a3.874 3.874 0 0 1-.24-3c.16-.48.42-.93.76-1.32s.74-.72 1.2-.96.97-.41 1.51-.47l1.5-.09 1.5-.09 1.5-.09 1.5-.09c.43 0 .84.07 1.24.19s.76.31 1.1.54.63.52.87.85.44.7.57 1.11c.22.69.25 1.36.14 1.98s-.36 1.19-.73 1.68-.83.89-1.38 1.17-1.16.44-1.81.44Zm34.84 54.83c-1.45 1.11-2.98 2.04-4.53 2.83s-3.15 1.42-4.74 1.93-3.18.9-4.73 1.19-3.06.48-4.51.61c-.02 0-.05 0-.06.02s-.04.02-.05.04-.03.03-.03.06-.01.04-.01.07v9.56c0 .55-.11 1.07-.31 1.55s-.49.9-.85 1.26-.79.65-1.26.85-1 .31-1.55.31-1.07-.11-1.55-.31-.9-.49-1.26-.85-.65-.79-.85-1.27-.31-1-.31-1.55V105.7c0-.55.11-1.07.31-1.55s.49-.9.85-1.26.79-.65 1.26-.85 1-.31 1.55-.31c2.41 0 5.22-.2 8.08-.82s5.79-1.67 8.41-3.37 4.94-4.06 6.61-7.31 2.69-7.37 2.7-12.62c0-.52.1-1.03.28-1.5s.45-.89.78-1.26.72-.67 1.17-.9.93-.37 1.45-.4c.58-.04 1.14.04 1.65.23s.97.47 1.36.83.7.8.92 1.29.34 1.04.34 1.61c0 2.81-.23 5.46-.7 7.93s-1.16 4.77-2.09 6.9-2.09 4.07-3.47 5.84-3 3.36-4.85 4.76Zm155.54 173.59v-23.67h10.37v20.39c0 4.91 2.32 7.43 6.28 7.43s6.48-2.52 6.48-7.43v-20.39h10.37v36.56h-10.37v-5.18c-2.39 3.07-5.46 5.87-10.71 5.87-7.84 0-12.41-5.18-12.41-13.57Z"/></svg>